<svg width="43" height="55" viewBox="0 0 43 55" fill="none" xmlns="http://www.w3.org/2000/svg">
<ellipse rx="2" ry="2.5" transform="matrix(1 0 0 -1 15 32.5)" fill="black"/>
<ellipse rx="2" ry="2.5" transform="matrix(1 0 0 -1 23 32.5)" fill="#0F0D0D"/>
<path d="M31 14V38.5228C31 47.1499 23.256 53.7138 14.7455 52.3003C1.89522 50.166 -1.29498 33.1565 9.90858 26.5108L31 14Z" stroke="#0B0454" stroke-width="5"/>
<path d="M29.4617 0.85298L26.0211 9.47599C25.4067 11.0156 23.3594 11.3192 22.3248 10.024C21.6109 9.13041 21.7168 7.83543 22.5662 7.06962L29.4617 0.85298Z" stroke="#0B0454"/>
<path d="M42.3012 8.34003L39.813 17.2845C39.3687 18.8815 37.3661 19.4046 36.1976 18.2289C35.3913 17.4177 35.3565 16.1189 36.1182 15.2657L42.3012 8.34003Z" stroke="#0B0454"/>
<path d="M15.2103 10.7395L11.9804 19.4436C11.4037 20.9977 9.36432 21.351 8.29851 20.0814C7.56317 19.2054 7.63748 17.9083 8.46804 17.122L15.2103 10.7395Z" stroke="#0B0454"/>
<path d="M21.1087 42.8444C18.8256 44.6392 14.0548 46.6726 13.2369 40.4472" stroke="#0E0202" stroke-width="3"/>
</svg>
